<?xml version="1.0" encoding="UTF-8" standalone="no"?>
<svg
   width="19.059999"
   height="19.062"
   viewBox="0 0 19.059999 19.062"
   version="1.1"
   id="svg4"
   sodipodi:docname="seo.svg"
   inkscape:version="1.1.2 (b8e25be833, 2022-02-05)"
   xmlns:inkscape="http://www.inkscape.org/namespaces/inkscape"
   xmlns:sodipodi="http://sodipodi.sourceforge.net/DTD/sodipodi-0.dtd"
   xmlns="http://www.w3.org/2000/svg"
   xmlns:svg="http://www.w3.org/2000/svg">
  <defs
     id="defs8" />
  <sodipodi:namedview
     id="namedview6"
     pagecolor="#505050"
     bordercolor="#eeeeee"
     borderopacity="1"
     inkscape:pageshadow="0"
     inkscape:pageopacity="0"
     inkscape:pagecheckerboard="0"
     showgrid="false"
     fit-margin-top="0"
     fit-margin-left="0"
     fit-margin-right="0"
     fit-margin-bottom="0"
     inkscape:zoom="33.25"
     inkscape:cx="9.9699248"
     inkscape:cy="10"
     inkscape:window-width="1920"
     inkscape:window-height="991"
     inkscape:window-x="-9"
     inkscape:window-y="-9"
     inkscape:window-maximized="1"
     inkscape:current-layer="svg4" />
  <path
     d="M 17.023,14.977 A 35.13,35.13 0 0 1 15.656,13.593 C 15.284,13.215 15.06,12.94 15.06,12.94 l -2.8,-1.337 A 6.962,6.962 0 0 0 14,7 C 14,3.141 10.86,0 7,0 3.14,0 0,3.141 0,7 c 0,3.859 3.14,7 7,7 1.763,0 3.37,-0.66 4.603,-1.739 l 1.337,2.8 c 0,0 0.275,0.224 0.653,0.596 0.387,0.363 0.896,0.854 1.384,1.367 l 1.358,1.392 0.604,0.646 2.121,-2.121 -0.646,-0.604 c -0.379,-0.372 -0.885,-0.866 -1.391,-1.36 z M 7,12 C 4.243,12 2,9.757 2,7 2,4.243 4.243,2 7,2 c 2.757,0 5,2.243 5,5 0,2.757 -2.243,5 -5,5 z"
     id="path2"
     style="fill:#000000" />
</svg>
