<?xml version="1.0" encoding="UTF-8"?>
<svg id="Layer_1" data-name="Layer 1" xmlns="http://www.w3.org/2000/svg" viewBox="0 0 1088.52 178.96">
  <defs>
    <style>
      .cls-1 {
        fill: #f05423;
      }

      .cls-2 {
        fill: #272626;
      }
    </style>
  </defs>
  <g>
    <g>
      <path class="cls-1" d="m239.23,138.42h8.73v5.7c-.81.74-1.78,1.34-2.9,1.78-1.25.49-2.55.74-3.89.74-1.96,0-3.73-.43-5.24-1.29-1.5-.85-2.69-2.06-3.53-3.58-.85-1.54-1.28-3.32-1.28-5.32s.43-3.82,1.28-5.35c.84-1.52,2.03-2.72,3.54-3.56,1.53-.85,3.31-1.28,5.3-1.28,1.33,0,2.61.26,3.8.76,1.2.51,2.29,1.25,3.24,2.21l.63.63,2.2-2.35-.6-.59c-2.61-2.56-5.73-3.85-9.27-3.85-2.59,0-4.92.57-6.94,1.69-2.03,1.13-3.63,2.73-4.76,4.76-1.12,2.02-1.69,4.35-1.69,6.94s.57,4.92,1.69,6.94c1.12,2.03,2.72,3.63,4.74,4.76,2,1.12,4.32,1.69,6.89,1.69,1.86,0,3.64-.35,5.29-1.04,1.64-.69,3.15-1.71,4.47-3.03l.25-.25v-10.27h-11.96v3.19Z"/>
      <path class="cls-1" d="m274.64,139.08c1.32-.7,2.36-1.69,3.08-2.95.72-1.25,1.09-2.71,1.09-4.33s-.36-3.09-1.09-4.35c-.73-1.27-1.77-2.27-3.1-2.97-1.31-.69-2.84-1.03-4.54-1.03h-11.37v25.99h3.26v-9.32h5.79l8.6,9.32h4.33l-8.73-9.47c.98-.16,1.88-.46,2.69-.89Zm-12.68-12.41h8.11c1.73,0,3.04.45,4.03,1.39h0c.97.92,1.45,2.15,1.45,3.74s-.47,2.82-1.45,3.74c-.99.94-2.3,1.39-4.03,1.39h-8.11v-10.26Z"/>
      <path class="cls-1" d="m294.85,123.44l-11.66,25.99h3.56l2.74-6.1h13.64l2.74,6.1h3.56l-11.66-25.99h-2.92Zm-3.96,16.67l5.42-12.06,5.42,12.06h-10.84Z"/>
      <path class="cls-1" d="m330.97,125.09c-1.99-1.09-4.29-1.65-6.83-1.65h-8.98v25.99h8.98c2.54,0,4.84-.56,6.83-1.65,2.01-1.1,3.59-2.66,4.7-4.63,1.11-1.96,1.67-4.22,1.67-6.72s-.56-4.76-1.67-6.72c-1.12-1.97-2.7-3.53-4.7-4.63Zm-6.83,21.12h-5.72v-19.55h5.72c1.92,0,3.66.42,5.16,1.24,1.49.82,2.67,1.98,3.51,3.45.84,1.48,1.27,3.19,1.27,5.08s-.42,3.61-1.26,5.08c-.83,1.47-2,2.63-3.49,3.45-1.5.83-3.25,1.24-5.2,1.24Z"/>
      <polygon class="cls-1" points="362.1 143.52 347.46 123.44 344.49 123.44 344.49 149.44 347.75 149.44 347.75 129.29 362.42 149.44 365.32 149.44 365.32 123.44 362.1 123.44 362.1 143.52"/>
      <path class="cls-1" d="m379.25,126.67h9.53v12.86c0,1.42-.3,2.68-.88,3.74-.58,1.07-1.37,1.87-2.42,2.45-1.04.58-2.28.88-3.67.88s-2.59-.3-3.65-.89c-1.06-.6-1.86-1.41-2.46-2.47-.59-1.07-.9-2.31-.9-3.7v-.87h-3.19v.87c0,1.97.43,3.75,1.29,5.29.86,1.56,2.09,2.79,3.64,3.66,1.55.87,3.31,1.31,5.26,1.31s3.74-.43,5.28-1.27c1.56-.85,2.79-2.07,3.65-3.64.85-1.55,1.29-3.34,1.29-5.32v-16.12h-12.79v3.22Z"/>
      <path class="cls-1" d="m408.22,123.44l-11.66,25.99h3.56l2.74-6.1h13.64l2.74,6.1h3.56l-11.66-25.99h-2.92Zm-3.96,16.67l5.42-12.06,5.42,12.06h-10.84Z"/>
      <path class="cls-1" d="m458.48,124.73c-1.98-1.13-4.26-1.71-6.75-1.71s-4.77.57-6.75,1.71c-1.99,1.14-3.57,2.75-4.68,4.79-1.1,2.03-1.67,4.35-1.67,6.91s.56,4.89,1.67,6.91c1.11,2.04,2.69,3.65,4.68,4.79,1.98,1.13,4.26,1.71,6.75,1.71s4.77-.57,6.75-1.71c1.99-1.14,3.57-2.75,4.68-4.79,1.11-2.03,1.67-4.35,1.67-6.91s-.56-4.89-1.67-6.91c-1.11-2.04-2.69-3.65-4.68-4.79Zm-1.66,20.64c-1.49.86-3.2,1.29-5.1,1.29s-3.61-.43-5.1-1.29c-1.48-.85-2.65-2.06-3.48-3.59-.84-1.55-1.26-3.35-1.26-5.34s.43-3.79,1.26-5.34c.83-1.54,2-2.75,3.48-3.59,1.49-.86,3.2-1.29,5.1-1.29s3.61.43,5.1,1.29c1.48.85,2.65,2.06,3.48,3.59.84,1.55,1.26,3.35,1.26,5.34s-.43,3.79-1.26,5.34c-.83,1.54-2,2.75-3.48,3.59h0Z"/>
      <path class="cls-1" d="m487.77,125.09c-1.99-1.09-4.29-1.65-6.83-1.65h-8.98v25.99h8.98c2.54,0,4.84-.56,6.83-1.65,2-1.1,3.59-2.66,4.7-4.63,1.11-1.96,1.67-4.22,1.67-6.72s-.56-4.76-1.67-6.72c-1.12-1.97-2.7-3.53-4.7-4.63Zm-6.83,21.12h-5.72v-19.55h5.72c1.92,0,3.66.42,5.16,1.24,1.49.82,2.67,1.98,3.51,3.45.85,1.48,1.27,3.19,1.27,5.08s-.42,3.61-1.26,5.09c-.83,1.47-2,2.63-3.49,3.44-1.5.83-3.25,1.24-5.2,1.24Z"/>
      <path class="cls-1" d="m529.94,124.56c-1.34-.74-2.94-1.11-4.77-1.11h-11.16v25.99h3.26v-8.46h7.9c1.81,0,3.4-.37,4.75-1.11,1.37-.75,2.43-1.81,3.14-3.14.7-1.31,1.06-2.82,1.06-4.48s-.35-3.21-1.05-4.53c-.71-1.35-1.76-2.41-3.12-3.16Zm-12.67,2.07h7.87c1.88,0,3.27.49,4.27,1.51,1,1.02,1.48,2.35,1.48,4.07s-.49,3.05-1.48,4.07h0c-.99,1.02-2.39,1.51-4.27,1.51h-7.87v-11.16Z"/>
      <path class="cls-1" d="m558.89,124.73c-1.98-1.13-4.26-1.71-6.75-1.71s-4.77.57-6.76,1.71c-1.99,1.14-3.57,2.75-4.68,4.79-1.11,2.03-1.67,4.35-1.67,6.91s.56,4.89,1.67,6.91c1.11,2.04,2.69,3.65,4.68,4.79,1.98,1.13,4.26,1.71,6.76,1.71s4.77-.57,6.75-1.71c1.99-1.14,3.57-2.75,4.68-4.79,1.11-2.03,1.67-4.35,1.67-6.91s-.56-4.89-1.67-6.91c-1.11-2.04-2.69-3.65-4.68-4.79Zm-1.66,20.64c-1.49.86-3.2,1.29-5.1,1.29s-3.61-.43-5.1-1.29c-1.48-.85-2.65-2.06-3.48-3.59-.84-1.55-1.26-3.35-1.26-5.34s.43-3.79,1.26-5.34c.83-1.54,2-2.75,3.48-3.59,1.49-.86,3.2-1.29,5.1-1.29s3.61.43,5.1,1.29c1.48.85,2.65,2.06,3.48,3.59.84,1.55,1.26,3.35,1.26,5.34s-.43,3.79-1.26,5.34c-.83,1.54-2,2.75-3.48,3.59h0Z"/>
      <polygon class="cls-1" points="580.97 144.52 572.3 123.44 568.8 123.44 579.49 149.44 582.42 149.44 593.11 123.44 589.61 123.44 580.97 144.52"/>
      <polygon class="cls-1" points="602.32 137.9 616.71 137.9 616.71 134.71 602.32 134.71 602.32 126.63 617.43 126.63 617.43 123.44 599.06 123.44 599.06 149.44 617.88 149.44 617.88 146.25 602.32 146.25 602.32 137.9"/>
      <path class="cls-1" d="m641.1,139.08c1.32-.7,2.36-1.69,3.08-2.95.72-1.25,1.09-2.71,1.09-4.33s-.37-3.09-1.09-4.35c-.73-1.27-1.77-2.27-3.1-2.97-1.31-.69-2.84-1.03-4.54-1.03h-11.37v25.99h3.26v-9.32h5.79l8.6,9.32h4.33l-8.73-9.47c.98-.16,1.88-.46,2.69-.89Zm-12.67-12.41h8.11c1.73,0,3.05.45,4.03,1.39.97.92,1.45,2.15,1.45,3.74s-.47,2.82-1.45,3.74c-.98.94-2.3,1.39-4.03,1.39h-8.11v-10.26Z"/>
      <polygon class="cls-1" points="656.04 137.9 670.43 137.9 670.43 134.71 656.04 134.71 656.04 126.63 671.16 126.63 671.16 123.44 652.79 123.44 652.79 149.44 671.61 149.44 671.61 146.25 656.04 146.25 656.04 137.9"/>
      <polygon class="cls-1" points="696.49 143.52 681.86 123.44 678.89 123.44 678.89 149.44 682.14 149.44 682.14 129.29 696.81 149.44 699.72 149.44 699.72 123.44 696.49 123.44 696.49 143.52"/>
      <path class="cls-1" d="m713.65,126.67h9.53v12.86c0,1.42-.3,2.68-.88,3.74-.58,1.07-1.37,1.87-2.42,2.45-1.04.58-2.28.88-3.67.88s-2.59-.3-3.65-.89c-1.06-.6-1.86-1.41-2.46-2.47-.59-1.06-.89-2.31-.89-3.7v-.87h-3.19v.87c0,1.97.43,3.75,1.29,5.29.86,1.56,2.09,2.79,3.64,3.66,1.54.87,3.31,1.31,5.26,1.31s3.74-.43,5.28-1.27c1.56-.85,2.79-2.07,3.65-3.64.85-1.54,1.29-3.34,1.29-5.32v-16.12h-12.79v3.22Z"/>
      <path class="cls-1" d="m745.54,123.44h-2.92l-11.66,25.99h3.56l2.74-6.1h13.64l2.74,6.1h3.56l-11.66-25.99Zm-6.88,16.67l5.42-12.06,5.42,12.06h-10.84Z"/>
    </g>
    <g>
      <path class="cls-2" d="m241.48,92.82c-4.78-1.56-8.91-3.75-12.39-6.58l7.66-10.73c5.59,4.39,12.11,6.58,19.55,6.58,3.72,0,6.68-.63,8.88-1.89,2.19-1.26,3.29-2.97,3.29-5.14,0-2.04-1.02-3.63-3.06-4.77-2.04-1.14-5.29-1.95-9.73-2.43-8.59-.96-14.88-2.97-18.88-6.04-4-3.06-5.99-7.45-5.99-13.16,0-3.84,1.08-7.24,3.24-10.18,2.16-2.94,5.2-5.23,9.1-6.85,3.9-1.62,8.41-2.43,13.52-2.43,4.38,0,8.66.63,12.84,1.89,4.18,1.26,7.85,3.03,11.04,5.32l-6.94,10.36c-4.93-3.43-10.36-5.14-16.31-5.14-3.67,0-6.59.6-8.79,1.8-2.19,1.2-3.29,2.83-3.29,4.87s.95,3.51,2.84,4.59c1.89,1.08,5.06,1.89,9.51,2.43,8.53.96,14.9,3.08,19.1,6.35,4.21,3.27,6.31,7.76,6.31,13.47,0,3.97-1.11,7.47-3.33,10.5-2.22,3.04-5.35,5.38-9.37,7.03-4.03,1.65-8.65,2.48-13.88,2.48s-10.14-.78-14.91-2.34Z"/>
      <path class="cls-2" d="m306.77,81.28h34.79v12.44h-49.11V30.64h48.12v12.35h-33.79v12.8h31.99v11.9h-31.99v13.61Z"/>
      <path class="cls-2" d="m395.4,34.51c4.9,2.58,8.68,6.26,11.35,11.04,2.67,4.78,4.01,10.32,4.01,16.63s-1.34,11.85-4.01,16.63c-2.67,4.77-6.46,8.46-11.35,11.04-4.9,2.58-10.59,3.87-17.08,3.87h-25.86V30.64h25.86c6.49,0,12.18,1.29,17.08,3.87Zm-4.28,41.27c3.24-3.36,4.87-7.9,4.87-13.61,0-3.79-.74-7.07-2.21-9.87-1.47-2.79-3.55-4.96-6.22-6.49-2.67-1.53-5.75-2.3-9.24-2.3h-11.09v37.31h11.09c5.29,0,9.55-1.68,12.8-5.05Z"/>
      <path class="cls-2" d="m477.18,30.64h13.25v63.08h-14.69v-39.47l-18.56,22.71h-2.88l-18.74-22.8v39.56h-14.69V30.64h13.25l21.54,26.85,21.54-26.85Z"/>
      <path class="cls-2" d="m504.12,30.64h14.78v63.08h-14.78V30.64Z"/>
      <path class="cls-2" d="m609.83,93.72h-19.19l-22.17-25.05v25.05h-14.69V30.64h14.69v24.69l20.73-24.69h18.2l-26.58,30.91,29.02,32.17Z"/>
      <path class="cls-2" d="m624.02,91.15c-5.14-2.73-9.1-6.59-11.9-11.58-2.79-4.98-4.19-10.78-4.19-17.39s1.4-12.41,4.19-17.39,6.76-8.85,11.9-11.58c5.14-2.73,11.1-4.1,17.89-4.1s12.75,1.37,17.89,4.1c5.14,2.73,9.1,6.59,11.9,11.58s4.19,10.78,4.19,17.39-1.4,12.41-4.19,17.39c-2.79,4.99-6.76,8.85-11.9,11.58-5.14,2.73-11.1,4.1-17.89,4.1s-12.75-1.37-17.89-4.1Zm27.94-11.54c2.91-1.65,5.17-3.98,6.76-6.98,1.59-3,2.39-6.49,2.39-10.45s-.8-7.45-2.39-10.45c-1.59-3-3.85-5.33-6.76-6.98-2.91-1.65-6.26-2.48-10.05-2.48s-7.12.83-10,2.48c-2.88,1.65-5.12,3.98-6.71,6.98-1.59,3.01-2.39,6.49-2.39,10.45s.8,7.45,2.39,10.45c1.59,3.01,3.83,5.33,6.71,6.98,2.88,1.65,6.22,2.48,10,2.48s7.13-.83,10.05-2.48Z"/>
      <path class="cls-2" d="m727.61,30.64h14.69v63.08h-13.25l-28.57-39.02.18,17.03v21.99h-14.69V30.64h13.25l28.57,39.2-.18-16.85v-22.35Z"/>
      <path class="cls-2" d="m803.85,30.64v12.89h-19.28v50.19h-14.78v-50.19h-19.19v-12.89h53.26Z"/>
      <path class="cls-2" d="m812.05,30.64h14.78v63.08h-14.78V30.64Z"/>
      <path class="cls-2" d="m882.24,30.64h14.69v63.08h-13.25l-28.57-39.02.18,17.03v21.99h-14.69V30.64h13.25l28.57,39.2-.18-16.85v-22.35Z"/>
      <path class="cls-2" d="m924.96,81.28h34.79v12.44h-49.11V30.64h48.12v12.35h-33.79v12.8h31.99v11.9h-31.99v13.61Z"/>
      <path class="cls-2" d="m1012.28,30.64h14.69v63.08h-13.25l-28.57-39.02.18,17.03v21.99h-14.69V30.64h13.25l28.57,39.2-.18-16.85v-22.35Z"/>
      <path class="cls-2" d="m1088.52,30.64v12.89h-19.28v50.19h-14.78v-50.19h-19.19v-12.89h53.26Z"/>
    </g>
  </g>
  <path class="cls-1" d="m9.94,29.52V9.95h178.52v159.06h-49.83v-76.22s-48.41-21.92-48.41-21.92l-.06-.03v-24.33S29.85,25.41,29.85,25.41L0,51.32H0s0,127.63,0,127.63h35.9s0-140.88,0-140.88h.04s44.27,15.51,44.27,15.51v17.86s-27.09,18.36-27.09,18.36l-.04.03v89.12s37.1,0,37.1,0v-97.18s.04.02.04.02l38.46,17.42v79.74s69.72,0,69.72,0h0s0-178.96,0-178.96H0s0,38.15,0,38.15l9.94-8.63Zm16.02,139.49H9.96V55.86s16-13.9,16-13.9v127.05Zm54.28,0h-17.2v-73.9s.04-.03.04-.03l17.14-11.62.02,72.33v9.94s0,3.28,0,3.28Z"/>
</svg>